<?xml version="1.0" standalone="no"?><!DOCTYPE svg PUBLIC "-//W3C//DTD SVG 1.1//EN" "http://www.w3.org/Graphics/SVG/1.1/DTD/svg11.dtd"><svg t="1746757239691" class="icon" viewBox="0 0 1024 1024" version="1.1" xmlns="http://www.w3.org/2000/svg" p-id="4979" xmlns:xlink="http://www.w3.org/1999/xlink" width="200" height="200"><path d="M847.58482467 383.44556049c0-91.55526994-68.18530565-167.12469958-155.57718806-177.14039835v-0.27493976c0-28.71166931-23.25213254-51.96380185-51.96380185-51.96380184h-254.12380751c-28.71166931 0-51.96380185 23.25213254-51.96380185 51.96380184v97.48613372c0 28.71166931 23.25213254 51.96380185 51.96380185 51.96380186h254.12380751c28.71166931 0 51.96380185-23.25213254 51.96380185-51.96380186v-6.52002253c38.68809182 9.11232252 67.59614689 44.3832921 67.59614837 86.44922692s-28.94733281 77.3369059-67.59614837 86.44922693v-6.48074626c0-28.71166931-23.25213254-51.96380185-51.96380185-51.96380184h-254.12380751c-28.71166931 0-51.96380185 23.25213254-51.96380185 51.96380184-88.41309042 8.99449075-157.73743582 85.11380141-157.73743582 177.4153396s69.28506914 168.42084881 157.73743582 177.4153381c0 28.71166931 23.25213254 51.96380185 51.96380185 51.96380184h254.12380751c28.71166931 0 51.96380185-23.25213254 51.96380185-51.96380184v-97.48613518c0-28.71166931-23.25213254-51.96380185-51.96380185-51.96380186h-254.12380751c-28.71166931 0-51.96380185 23.25213254-51.96380185 51.96380186v7.06990501c-39.74857758-8.28750026-69.75639613-44.14762859-69.75639614-86.99910793s30.00781858-78.71160916 69.75639614-86.99910943v7.06990501c0 28.71166931 23.25213254 51.96380185 51.96380185 51.96380185h254.12380751c28.71166931 0 51.96380185-23.25213254 51.96380185-51.96380185v-0.3142175c87.39188093-10.01569877 155.57718804-85.58512842 155.57718806-177.14039835z" p-id="4980" fill="#707070"></path></svg>